<svg width="16" height="19" viewBox="0 0 16 19" fill="none" xmlns="http://www.w3.org/2000/svg">
<path fill-rule="evenodd" clip-rule="evenodd" d="M4.28571 0C4.7591 0 5.14286 0.383756 5.14286 0.857143V2.28571H10.8571V0.857143C10.8571 0.383756 11.2409 0 11.7143 0C12.1877 0 12.5714 0.383756 12.5714 0.857143V2.28571H14C15.1046 2.28571 16 3.18114 16 4.28571V16.2857C16 17.3903 15.1046 18.2857 14 18.2857H2C0.89543 18.2857 0 17.3903 0 16.2857V4.28571C0 3.18114 0.895431 2.28571 2 2.28571H3.42857V0.857143C3.42857 0.383756 3.81233 0 4.28571 0ZM14 4C14.1578 4 14.2857 4.12792 14.2857 4.28571V6.85714H1.71429V4.28571C1.71429 4.12792 1.8422 4 2 4H14ZM1.71429 8.57143V16.2857C1.71429 16.4435 1.8422 16.5714 2 16.5714H14C14.1578 16.5714 14.2857 16.4435 14.2857 16.2857V8.57143H1.71429Z" fill="#797C7B"/>
</svg>
